<svg version="1.1" xmlns="http://www.w3.org/2000/svg" viewBox="0 0 1583.9555317766965 689.5" width="1583.9555317766965" height="689.5" filter="invert(93%) hue-rotate(180deg)">
  <!-- svg-source:excalidraw -->
  
  <defs>
    <style>
      @font-face {
        font-family: "Virgil";
        src: url("https://excalidraw.com/Virgil.woff2");
      }
      @font-face {
        font-family: "Cascadia";
        src: url("https://excalidraw.com/Cascadia.woff2");
      }
    </style>
  </defs>
  <rect x="0" y="0" width="1583.9555317766965" height="689.5" fill="#f8f9fa"></rect><g transform="translate(224.1428571428571 37.53571428571422) rotate(0 11.5 22)"><text x="0" y="35" font-family="Cascadia, Segoe UI Emoji" font-size="36px" fill="#000000" text-anchor="start" style="white-space: pre;" direction="ltr">8</text></g><g transform="translate(430.5 302.5) rotate(0 53.5 22)"><text x="0" y="35" font-family="Cascadia, Segoe UI Emoji" font-size="36px" fill="#000000" text-anchor="start" style="white-space: pre;" direction="ltr">Score</text></g><g transform="translate(155.5 114.5) rotate(0 11.5 22)"><text x="0" y="35" font-family="Cascadia, Segoe UI Emoji" font-size="36px" fill="#000000" text-anchor="start" style="white-space: pre;" direction="ltr">6</text></g><g transform="translate(295 105.5) rotate(0 11.5 22)"><text x="0" y="35" font-family="Cascadia, Segoe UI Emoji" font-size="36px" fill="#000000" text-anchor="start" style="white-space: pre;" direction="ltr">2</text></g><g transform="translate(476.5 367) rotate(0 22 22)"><text x="0" y="35" font-family="Cascadia, Segoe UI Emoji" font-size="36px" fill="#000000" text-anchor="start" style="white-space: pre;" direction="ltr">12</text></g><g transform="translate(285 200.5) rotate(0 11.5 22)"><text x="0" y="35" font-family="Cascadia, Segoe UI Emoji" font-size="36px" fill="#000000" text-anchor="start" style="white-space: pre;" direction="ltr">1</text></g><g transform="translate(384 201.5) rotate(0 11.5 22)"><text x="0" y="35" font-family="Cascadia, Segoe UI Emoji" font-size="36px" fill="#000000" text-anchor="start" style="white-space: pre;" direction="ltr">1</text></g><g transform="translate(64 208) rotate(0 11.5 22)"><text x="0" y="35" font-family="Cascadia, Segoe UI Emoji" font-size="36px" fill="#000000" text-anchor="start" style="white-space: pre;" direction="ltr">3</text></g><g transform="translate(151 200.5) rotate(0 11.5 22)"><text x="0" y="35" font-family="Cascadia, Segoe UI Emoji" font-size="36px" fill="#000000" text-anchor="start" style="white-space: pre;" direction="ltr">3</text></g><g transform="translate(480 434) rotate(0 22 22)"><text x="0" y="35" font-family="Cascadia, Segoe UI Emoji" font-size="36px" fill="#000000" text-anchor="start" style="white-space: pre;" direction="ltr">10</text></g><g transform="translate(10 285.5) rotate(0 11.5 22)"><text x="0" y="35" font-family="Cascadia, Segoe UI Emoji" font-size="36px" fill="#000000" text-anchor="start" style="white-space: pre;" direction="ltr">1</text></g><g transform="translate(94 296) rotate(0 11.5 22)"><text x="0" y="35" font-family="Cascadia, Segoe UI Emoji" font-size="36px" fill="#000000" text-anchor="start" style="white-space: pre;" direction="ltr">2</text></g><g transform="translate(148.5 314) rotate(0 11.5 22)"><text x="0" y="35" font-family="Cascadia, Segoe UI Emoji" font-size="36px" fill="#000000" text-anchor="start" style="white-space: pre;" direction="ltr">1</text></g><g transform="translate(237 281.5) rotate(0 11.5 22)"><text x="0" y="35" font-family="Cascadia, Segoe UI Emoji" font-size="36px" fill="#000000" text-anchor="start" style="white-space: pre;" direction="ltr">2</text></g><g transform="translate(494.5 494) rotate(0 11.5 22)"><text x="0" y="35" font-family="Cascadia, Segoe UI Emoji" font-size="36px" fill="#000000" text-anchor="start" style="white-space: pre;" direction="ltr">4</text></g><g transform="translate(43 362.5) rotate(0 11.5 22)"><text x="0" y="35" font-family="Cascadia, Segoe UI Emoji" font-size="36px" fill="#000000" text-anchor="start" style="white-space: pre;" direction="ltr">1</text></g><g transform="translate(87 368.5) rotate(0 11.5 22)"><text x="0" y="35" font-family="Cascadia, Segoe UI Emoji" font-size="36px" fill="#000000" text-anchor="start" style="white-space: pre;" direction="ltr">1</text></g><g transform="translate(211.5 375.5) rotate(0 11.5 22)"><text x="0" y="35" font-family="Cascadia, Segoe UI Emoji" font-size="36px" fill="#000000" text-anchor="start" style="white-space: pre;" direction="ltr">1</text></g><g transform="translate(262.5 374.5) rotate(0 11.5 22)"><text x="0" y="35" font-family="Cascadia, Segoe UI Emoji" font-size="36px" fill="#000000" text-anchor="start" style="white-space: pre;" direction="ltr">1</text></g><g transform="translate(493.5 556) rotate(0 11.5 22)"><text x="0" y="35" font-family="Cascadia, Segoe UI Emoji" font-size="36px" fill="#000000" text-anchor="start" style="white-space: pre;" direction="ltr">2</text></g><g stroke-linecap="round"><g transform="translate(384 600.5) rotate(0 130.47311086004618 1.746095540905344)"><path d="M0.32 -0.83 C43.66 -0.53, 216.28 2.05, 259.83 2.86 M-0.98 1.34 C42.74 2.36, 218.23 4.18, 261.92 4.33" stroke="#000000" stroke-width="4" fill="none"></path></g></g><g transform="translate(484.5 633.5) rotate(0 22 22)"><text x="0" y="35" font-family="Cascadia, Segoe UI Emoji" font-size="36px" fill="#000000" text-anchor="start" style="white-space: pre;" direction="ltr">28</text></g><g transform="translate(1089.0000000000002 10) rotate(0 11.5 22)"><text x="0" y="35" font-family="Cascadia, Segoe UI Emoji" font-size="36px" fill="#000000" text-anchor="start" style="white-space: pre;" direction="ltr">8</text></g><g transform="translate(1033.5000000000002 79) rotate(0 11.5 22)"><text x="0" y="35" font-family="Cascadia, Segoe UI Emoji" font-size="36px" fill="#000000" text-anchor="start" style="white-space: pre;" direction="ltr">7</text></g><g transform="translate(1154.5000000000002 80) rotate(0 11.5 22)"><text x="0" y="35" font-family="Cascadia, Segoe UI Emoji" font-size="36px" fill="#000000" text-anchor="start" style="white-space: pre;" direction="ltr">1</text></g><g transform="translate(979.5000000000002 146) rotate(0 11.5 22)"><text x="0" y="35" font-family="Cascadia, Segoe UI Emoji" font-size="36px" fill="#000000" text-anchor="start" style="white-space: pre;" direction="ltr">6</text></g><g transform="translate(923.5000000000002 217) rotate(0 11.5 22)"><text x="0" y="35" font-family="Cascadia, Segoe UI Emoji" font-size="36px" fill="#000000" text-anchor="start" style="white-space: pre;" direction="ltr">5</text></g><g transform="translate(874.5000000000002 298) rotate(0 11.5 22)"><text x="0" y="35" font-family="Cascadia, Segoe UI Emoji" font-size="36px" fill="#000000" text-anchor="start" style="white-space: pre;" direction="ltr">4</text></g><g transform="translate(816.0000000000002 384.5) rotate(0 11.5 22)"><text x="0" y="35" font-family="Cascadia, Segoe UI Emoji" font-size="36px" fill="#000000" text-anchor="start" style="white-space: pre;" direction="ltr">3</text></g><g transform="translate(775.5000000000002 475) rotate(0 11.5 22)"><text x="0" y="35" font-family="Cascadia, Segoe UI Emoji" font-size="36px" fill="#000000" text-anchor="start" style="white-space: pre;" direction="ltr">2</text></g><g transform="translate(725.5000000000002 600.5) rotate(0 11.5 22)"><text x="0" y="35" font-family="Cascadia, Segoe UI Emoji" font-size="36px" fill="#000000" text-anchor="start" style="white-space: pre;" direction="ltr">1</text></g><g transform="translate(842.5000000000002 561.5) rotate(0 11.5 22)"><text x="0" y="35" font-family="Cascadia, Segoe UI Emoji" font-size="36px" fill="#000000" text-anchor="start" style="white-space: pre;" direction="ltr">1</text></g><g transform="translate(898.0000000000002 461.5) rotate(0 11.5 22)"><text x="0" y="35" font-family="Cascadia, Segoe UI Emoji" font-size="36px" fill="#000000" text-anchor="start" style="white-space: pre;" direction="ltr">1</text></g><g transform="translate(947.5000000000002 380.5) rotate(0 11.5 22)"><text x="0" y="35" font-family="Cascadia, Segoe UI Emoji" font-size="36px" fill="#000000" text-anchor="start" style="white-space: pre;" direction="ltr">1</text></g><g transform="translate(1010.5000000000002 310) rotate(0 11.5 22)"><text x="0" y="35" font-family="Cascadia, Segoe UI Emoji" font-size="36px" fill="#000000" text-anchor="start" style="white-space: pre;" direction="ltr">1</text></g><g transform="translate(1075.5000000000002 232) rotate(0 11.5 22)"><text x="0" y="35" font-family="Cascadia, Segoe UI Emoji" font-size="36px" fill="#000000" text-anchor="start" style="white-space: pre;" direction="ltr">1</text></g><g transform="translate(1130.5000000000002 166) rotate(0 11.5 22)"><text x="0" y="35" font-family="Cascadia, Segoe UI Emoji" font-size="36px" fill="#000000" text-anchor="start" style="white-space: pre;" direction="ltr">1</text></g><g transform="translate(1360.0000000000002 23) rotate(0 53.5 22)"><text x="0" y="35" font-family="Cascadia, Segoe UI Emoji" font-size="36px" fill="#000000" text-anchor="start" style="white-space: pre;" direction="ltr">Score</text></g><g transform="translate(1390.0000000000002 101) rotate(0 11.5 22)"><text x="0" y="35" font-family="Cascadia, Segoe UI Emoji" font-size="36px" fill="#000000" text-anchor="start" style="white-space: pre;" direction="ltr">7</text></g><g transform="translate(1398.0000000000002 160) rotate(0 11.5 22)"><text x="0" y="35" font-family="Cascadia, Segoe UI Emoji" font-size="36px" fill="#000000" text-anchor="start" style="white-space: pre;" direction="ltr">6</text></g><g transform="translate(1395.0000000000002 230) rotate(0 11.5 22)"><text x="0" y="35" font-family="Cascadia, Segoe UI Emoji" font-size="36px" fill="#000000" text-anchor="start" style="white-space: pre;" direction="ltr">5</text></g><g transform="translate(1396.0000000000002 319) rotate(0 11.5 22)"><text x="0" y="35" font-family="Cascadia, Segoe UI Emoji" font-size="36px" fill="#000000" text-anchor="start" style="white-space: pre;" direction="ltr">4</text></g><g transform="translate(1398.0000000000002 409) rotate(0 11.5 22)"><text x="0" y="35" font-family="Cascadia, Segoe UI Emoji" font-size="36px" fill="#000000" text-anchor="start" style="white-space: pre;" direction="ltr">3</text></g><g transform="translate(1403.5000000000002 487) rotate(0 11.5 22)"><text x="0" y="35" font-family="Cascadia, Segoe UI Emoji" font-size="36px" fill="#000000" text-anchor="start" style="white-space: pre;" direction="ltr">2</text></g><g transform="translate(1398.0000000000002 547) rotate(0 11.5 22)"><text x="0" y="35" font-family="Cascadia, Segoe UI Emoji" font-size="36px" fill="#000000" text-anchor="start" style="white-space: pre;" direction="ltr">1</text></g><g stroke-linecap="round"><g transform="translate(1249.0288578573611 623.3976326938719) rotate(0 162.22776588834836 -4.3712018474100205)"><path d="M-0.47 -0.1 C53.75 -1.72, 270.82 -7.03, 324.93 -8.64 M1.48 -1.2 C55.6 -2.09, 270.49 -5.76, 324.1 -7.06" stroke="#000000" stroke-width="4" fill="none"></path></g></g><g transform="translate(1402.5000000000002 635.5) rotate(0 22 22)"><text x="0" y="35" font-family="Cascadia, Segoe UI Emoji" font-size="36px" fill="#000000" text-anchor="start" style="white-space: pre;" direction="ltr">28</text></g><g stroke-linecap="round"><g transform="translate(217.5 67.76298790496367) rotate(0 -19.493291559871295 29.92764684276517)"><path d="M0.34 1.17 C-6.07 11.14, -31.67 49.6, -38.25 59.12 M-0.94 0.73 C-7.55 10.46, -33.35 47.73, -39.33 57.57" stroke="#000000" stroke-width="2" fill="none"></path></g><g transform="translate(217.5 67.76298790496367) rotate(0 -19.493291559871295 29.92764684276517)"><path d="M-30.52 27.95 C-33.04 35.86, -36.6 48.37, -38.88 56.81 M-32.98 29.36 C-33.85 36.16, -36.32 43.77, -39.93 58.22" stroke="#000000" stroke-width="2" fill="none"></path></g><g transform="translate(217.5 67.76298790496367) rotate(0 -19.493291559871295 29.92764684276517)"><path d="M-13.36 39.19 C-21.28 43.56, -30.33 52.48, -38.88 56.81 M-15.81 40.6 C-21.37 44.55, -28.44 49.16, -39.93 58.22" stroke="#000000" stroke-width="2" fill="none"></path></g></g><g stroke-linecap="round"><g transform="translate(258 76.5) rotate(0 14.699248856697295 25.874444379843908)"><path d="M0.75 1.1 C5.66 9.36, 24.96 41.69, 29.72 49.55 M-0.32 0.63 C4.4 9.09, 23.87 43.06, 28.63 51.12" stroke="#000000" stroke-width="2" fill="none"></path></g><g transform="translate(258 76.5) rotate(0 14.699248856697295 25.874444379843908)"><path d="M8.25 32.1 C13.56 37.21, 18.52 44.87, 27.65 49.64 M7.01 32.23 C11.71 37.69, 17.56 41.72, 28.52 51.3" stroke="#000000" stroke-width="2" fill="none"></path></g><g transform="translate(258 76.5) rotate(0 14.699248856697295 25.874444379843908)"><path d="M25.37 22.16 C25.25 30.54, 24.78 41.34, 27.65 49.64 M24.13 22.29 C24.4 30.41, 25.84 37, 28.52 51.3" stroke="#000000" stroke-width="2" fill="none"></path></g></g><g stroke-linecap="round"><g transform="translate(147 157.5) rotate(0 -27.330950232054988 26.920947541203304)"><path d="M0.8 1.14 C-8.17 9.83, -45.57 44.76, -54.85 53.14 M-0.24 0.7 C-9.21 9.56, -46.28 42.78, -55.46 51.36" stroke="#000000" stroke-width="2" fill="none"></path></g><g transform="translate(147 157.5) rotate(0 -27.330950232054988 26.920947541203304)"><path d="M-39.67 25.85 C-43.21 31.51, -49 34.12, -56.52 52.26 M-40.77 24.12 C-45.14 32.05, -49.04 40.01, -54.72 52.34" stroke="#000000" stroke-width="2" fill="none"></path></g><g transform="translate(147 157.5) rotate(0 -27.330950232054988 26.920947541203304)"><path d="M-25.82 40.99 C-32.42 43.55, -41.14 42.96, -56.52 52.26 M-26.93 39.27 C-35.26 42.7, -43.18 46.26, -54.72 52.34" stroke="#000000" stroke-width="2" fill="none"></path></g></g><g stroke-linecap="round"><g transform="translate(166.5 162) rotate(0 -0.6091223933301535 23.161364320255643)"><path d="M0.08 -0.32 C0.25 7.55, -0.12 38.72, 0.05 46.38 M-1.34 -1.53 C-1.24 6.61, -1.25 39.85, -0.88 47.85" stroke="#000000" stroke-width="2" fill="none"></path></g><g transform="translate(166.5 162) rotate(0 -0.6091223933301535 23.161364320255643)"><path d="M-9.78 26.24 C-7.77 32.74, -7.19 37.46, -2.18 49.74 M-9.07 26.81 C-5.72 35.18, -2.82 43.64, -0.64 47.87" stroke="#000000" stroke-width="2" fill="none"></path></g><g transform="translate(166.5 162) rotate(0 -0.6091223933301535 23.161364320255643)"><path d="M6.12 25.93 C4.63 32.51, 1.72 37.3, -2.18 49.74 M6.83 26.5 C4.07 34.95, 0.87 43.53, -0.64 47.87" stroke="#000000" stroke-width="2" fill="none"></path></g></g><g stroke-linecap="round"><g transform="translate(310.5 150) rotate(0 -4.095163337197164 27.57495943536992)"><path d="M0.33 0.8 C-0.97 9.84, -6.29 46.1, -7.55 54.97 M-0.96 0.18 C-2.44 8.82, -7.37 44.16, -8.52 53.36" stroke="#000000" stroke-width="2" fill="none"></path></g><g transform="translate(310.5 150) rotate(0 -4.095163337197164 27.57495943536992)"><path d="M-13.03 26.66 C-10.71 35.68, -10.44 43.55, -7.8 51.47 M-13.88 26.68 C-12.54 32.88, -11.9 37.84, -8.89 53.87" stroke="#000000" stroke-width="2" fill="none"></path></g><g transform="translate(310.5 150) rotate(0 -4.095163337197164 27.57495943536992)"><path d="M5.45 29.13 C1.87 37.41, -3.74 44.5, -7.8 51.47 M4.61 29.15 C1.94 34.86, -1.44 39.28, -8.89 53.87" stroke="#000000" stroke-width="2" fill="none"></path></g></g><g stroke-linecap="round"><g transform="translate(316.5 154.5) rotate(0 29.49187867096623 21.024223964754356)"><path d="M-0.7 -0.3 C8.96 6.58, 47.69 35.15, 57.5 42.01 M1.13 -1.5 C11.2 5.52, 50.34 36.37, 59.69 43.55" stroke="#000000" stroke-width="2" fill="none"></path></g><g transform="translate(316.5 154.5) rotate(0 29.49187867096623 21.024223964754356)"><path d="M30.64 32.67 C38.6 36.31, 44.06 38.77, 60.65 45.49 M31.82 34.53 C37.59 37.23, 43.39 37.91, 59.34 44.1" stroke="#000000" stroke-width="2" fill="none"></path></g><g transform="translate(316.5 154.5) rotate(0 29.49187867096623 21.024223964754356)"><path d="M43.24 16.47 C48.04 24.23, 50.23 30.89, 60.65 45.49 M44.42 18.33 C47.37 24.71, 50.31 29.07, 59.34 44.1" stroke="#000000" stroke-width="2" fill="none"></path></g></g><g stroke-linecap="round"><g transform="translate(64.5 255) rotate(0 -15.531707169469541 17.741226780786974)"><path d="M-0.05 -1.03 C-5.16 5.24, -25.41 30.19, -30.56 36.51 M-1.54 1.05 C-6.72 7.05, -26.03 28.99, -31.01 34.65" stroke="#000000" stroke-width="2" fill="none"></path></g><g transform="translate(64.5 255) rotate(0 -15.531707169469541 17.741226780786974)"><path d="M-24.02 13.94 C-24.31 20.09, -26.32 26.69, -29.11 34 M-21.5 12.5 C-23.98 19.63, -27.09 25.81, -31.32 34.99" stroke="#000000" stroke-width="2" fill="none"></path></g><g transform="translate(64.5 255) rotate(0 -15.531707169469541 17.741226780786974)"><path d="M-11.73 24.75 C-15.66 27.61, -21.4 30.93, -29.11 34 M-9.22 23.3 C-15.55 27.04, -22.46 29.89, -31.32 34.99" stroke="#000000" stroke-width="2" fill="none"></path></g></g><g stroke-linecap="round"><g transform="translate(82.5 258) rotate(0 8.938496120329887 16.935451668128508)"><path d="M0.8 -0.98 C3.36 4.92, 13.03 28.86, 15.78 34.85 M-0.24 1.12 C2.68 6.69, 15.25 27.61, 18.12 32.91" stroke="#000000" stroke-width="2" fill="none"></path></g><g transform="translate(82.5 258) rotate(0 8.938496120329887 16.935451668128508)"><path d="M1.94 19.44 C8.88 25.86, 13.98 29.01, 16.75 33.56 M3.74 20.88 C7.35 24.41, 12.87 28.64, 17.47 32.27" stroke="#000000" stroke-width="2" fill="none"></path></g><g transform="translate(82.5 258) rotate(0 8.938496120329887 16.935451668128508)"><path d="M13.28 12.93 C16.41 21.6, 17.73 26.92, 16.75 33.56 M15.09 14.37 C15.07 20.05, 16.94 26.38, 17.47 32.27" stroke="#000000" stroke-width="2" fill="none"></path></g></g><g stroke-linecap="round"><g transform="translate(153.2250826766874 249.95797229446453) rotate(0 -1.6397508109663477 27.101378700323494)"><path d="M-0.82 -0.54 C-1.36 8.64, -3.04 45.44, -3.58 54.74 M0.95 1.79 C0.34 10.61, -3.27 44.14, -4.23 52.73" stroke="#000000" stroke-width="2" fill="none"></path></g><g transform="translate(153.2250826766874 249.95797229446453) rotate(0 -1.6397508109663477 27.101378700323494)"><path d="M-11.66 27.14 C-8.73 33.56, -6.09 41.35, -3.32 53.59 M-10.27 27.09 C-8.38 34.05, -7.52 43.14, -5.18 52.17" stroke="#000000" stroke-width="2" fill="none"></path></g><g transform="translate(153.2250826766874 249.95797229446453) rotate(0 -1.6397508109663477 27.101378700323494)"><path d="M6.94 29.15 C4.85 34.9, 2.47 42.15, -3.32 53.59 M8.33 29.11 C4.62 35.36, -0.11 43.84, -5.18 52.17" stroke="#000000" stroke-width="2" fill="none"></path></g></g><g stroke-linecap="round"><g transform="translate(174 252) rotate(0 21.802072773668897 17.867225238717992)"><path d="M0.92 1.16 C8.15 6.84, 36.43 28.42, 43.65 33.83 M-0.05 0.72 C7 6.57, 35.46 29.39, 42.79 35.01" stroke="#000000" stroke-width="2" fill="none"></path></g><g transform="translate(174 252) rotate(0 21.802072773668897 17.867225238717992)"><path d="M18.35 26.59 C23.87 30.25, 32.07 32.09, 44.48 33.71 M17.42 26.17 C21.75 28.88, 29.08 30.49, 43.76 35.05" stroke="#000000" stroke-width="2" fill="none"></path></g><g transform="translate(174 252) rotate(0 21.802072773668897 17.867225238717992)"><path d="M30.1 11.67 C31.76 20.28, 36.13 26.98, 44.48 33.71 M29.16 11.26 C30.82 17.32, 35.45 22.36, 43.76 35.05" stroke="#000000" stroke-width="2" fill="none"></path></g></g><g stroke-linecap="round"><g transform="translate(93 336) rotate(0 -12.592786405915376 11.735689625982104)"><path d="M-0.53 0.17 C-5 3.92, -22.43 19.1, -26.58 23.16 M1.39 -0.79 C-2.75 3.04, -19.85 20.37, -24.43 24.26" stroke="#000000" stroke-width="2" fill="none"></path></g><g transform="translate(93 336) rotate(0 -12.592786405915376 11.735689625982104)"><path d="M-16.29 7.06 C-20.22 13.79, -20.72 17.92, -25.18 25.23 M-15.81 8.94 C-19.89 13.29, -22.69 18.49, -23.98 23.54" stroke="#000000" stroke-width="2" fill="none"></path></g><g transform="translate(93 336) rotate(0 -12.592786405915376 11.735689625982104)"><path d="M-8.09 15.79 C-14.71 19.67, -17.86 20.99, -25.18 25.23 M-7.61 17.67 C-14.39 19.06, -19.96 21.31, -23.98 23.54" stroke="#000000" stroke-width="2" fill="none"></path></g></g><g stroke-linecap="round"><g transform="translate(105 337.5) rotate(0 2.8524165110942477 13.455966037139206)"><path d="M1.13 -0.78 C2.16 4, 4.65 23.15, 5.44 27.7 M0.27 1.42 C1.15 5.95, 3.41 21.59, 4.19 25.94" stroke="#000000" stroke-width="2" fill="none"></path></g><g transform="translate(105 337.5) rotate(0 2.8524165110942477 13.455966037139206)"><path d="M-3.45 13.21 C-0.24 16.5, -0.02 18.44, 3.27 26.52 M-2.07 14.16 C0.09 18.52, 2.61 22.74, 3.61 26.25" stroke="#000000" stroke-width="2" fill="none"></path></g><g transform="translate(105 337.5) rotate(0 2.8524165110942477 13.455966037139206)"><path d="M5.89 11.71 C6.86 15.44, 4.85 17.74, 3.27 26.52 M7.27 12.65 C6.21 17.49, 5.49 22.23, 3.61 26.25" stroke="#000000" stroke-width="2" fill="none"></path></g></g><g stroke-linecap="round"><g transform="translate(246.64326182010086 326.5) rotate(0 -11.623344793986007 22.687026444021512)"><path d="M-0.93 0.48 C-4.6 7.74, -19.21 36.96, -23.02 44.1 M0.78 -0.31 C-2.97 7.11, -20.33 38.26, -24.03 45.69" stroke="#000000" stroke-width="2" fill="none"></path></g><g transform="translate(246.64326182010086 326.5) rotate(0 -11.623344793986007 22.687026444021512)"><path d="M-19.77 20.95 C-21.04 24.89, -23.15 32.33, -22.1 46.58 M-20.04 20.21 C-20.77 27.04, -22.32 33.82, -24.7 45.22" stroke="#000000" stroke-width="2" fill="none"></path></g><g transform="translate(246.64326182010086 326.5) rotate(0 -11.623344793986007 22.687026444021512)"><path d="M-4.79 28.92 C-9.34 31.01, -14.69 36.73, -22.1 46.58 M-5.06 28.18 C-9.4 33.04, -14.6 37.88, -24.7 45.22" stroke="#000000" stroke-width="2" fill="none"></path></g></g><g stroke-linecap="round"><g transform="translate(258 322.5) rotate(0 5.360353243964369 24.136372437234968)"><path d="M-0.56 -0.44 C1.17 8.02, 9.33 41.55, 11.28 50 M1.34 -1.72 C2.8 6.45, 8.61 39.8, 10.06 48.13" stroke="#000000" stroke-width="2" fill="none"></path></g><g transform="translate(258 322.5) rotate(0 5.360353243964369 24.136372437234968)"><path d="M-3.36 25.19 C2.77 33.23, 7.88 43.84, 11.68 47.68 M-1.71 25.34 C2.6 33.37, 6.57 40.52, 10.42 48.14" stroke="#000000" stroke-width="2" fill="none"></path></g><g transform="translate(258 322.5) rotate(0 5.360353243964369 24.136372437234968)"><path d="M13.79 22.2 C13.53 31.28, 12.26 43, 11.68 47.68 M15.44 22.35 C13.92 31.35, 12.06 39.52, 10.42 48.14" stroke="#000000" stroke-width="2" fill="none"></path></g></g><g stroke-linecap="round"><g transform="translate(1089.0000000000002 43.5) rotate(0 -12.77014201635484 20.035398869002165)"><path d="M-0.34 -0.75 C-4.9 5.58, -22.18 32.49, -26.52 39.19 M1.68 1.46 C-3.07 8.53, -22.46 34.85, -27.22 40.82" stroke="#000000" stroke-width="2" fill="none"></path></g><g transform="translate(1089.0000000000002 43.5) rotate(0 -12.77014201635484 20.035398869002165)"><path d="M-21.46 18.97 C-22.25 27.5, -24.44 36.64, -26.92 40.34 M-20.43 19.06 C-22.83 22.82, -23.19 27.79, -27.89 40.8" stroke="#000000" stroke-width="2" fill="none"></path></g><g transform="translate(1089.0000000000002 43.5) rotate(0 -12.77014201635484 20.035398869002165)"><path d="M-8.54 28.78 C-14.18 33.66, -21.13 39.19, -26.92 40.34 M-7.51 28.86 C-12.79 30.45, -16.05 33.22, -27.89 40.8" stroke="#000000" stroke-width="2" fill="none"></path></g></g><g stroke-linecap="round"><g transform="translate(1104.0000000000002 48) rotate(0 19.806837384346863 19.88343585854409)"><path d="M-0.86 -0.27 C5.51 6.73, 31.48 34.53, 38.19 41.23 M0.89 -1.46 C7.65 5.27, 34.15 32.42, 40.47 39.49" stroke="#000000" stroke-width="2" fill="none"></path></g><g transform="translate(1104.0000000000002 48) rotate(0 19.806837384346863 19.88343585854409)"><path d="M14.91 25.48 C23.96 31.44, 29.25 34.88, 40.51 40.82 M15.12 25.93 C25.46 30.52, 33.08 35.57, 39.53 39.81" stroke="#000000" stroke-width="2" fill="none"></path></g><g transform="translate(1104.0000000000002 48) rotate(0 19.806837384346863 19.88343585854409)"><path d="M28.91 12.3 C33.71 22.08, 34.84 29.44, 40.51 40.82 M29.12 12.75 C34.51 22.26, 37.05 32.09, 39.53 39.81" stroke="#000000" stroke-width="2" fill="none"></path></g></g><g stroke-linecap="round"><g transform="translate(1033.5000000000002 121.5) rotate(0 -11.879137761499578 15.582472134008867)"><path d="M-0.24 -0.6 C-4.14 4.88, -18.87 26.33, -22.55 31.77 M-1.82 1.7 C-5.97 6.89, -19.99 25.08, -23.52 29.78" stroke="#000000" stroke-width="2" fill="none"></path></g><g transform="translate(1033.5000000000002 121.5) rotate(0 -11.879137761499578 15.582472134008867)"><path d="M-18.73 11.23 C-19.66 18.51, -21.46 23.82, -25.12 29.29 M-18.16 10.55 C-18.92 16.76, -21.48 20.58, -22.8 30.3" stroke="#000000" stroke-width="2" fill="none"></path></g><g transform="translate(1033.5000000000002 121.5) rotate(0 -11.879137761499578 15.582472134008867)"><path d="M-8.2 19.26 C-13.01 23.51, -18.76 25.8, -25.12 29.29 M-7.63 18.58 C-11.2 22.67, -16.62 24.31, -22.8 30.3" stroke="#000000" stroke-width="2" fill="none"></path></g></g><g stroke-linecap="round"><g transform="translate(978.0000000000002 181.5) rotate(0 -13.040219126874717 16.855180684570314)"><path d="M0.08 0.29 C-4.15 5.7, -21.15 27.82, -25.83 33.37 M-1.34 -0.61 C-5.58 4.83, -22.12 28.48, -26.16 34.32" stroke="#000000" stroke-width="2" fill="none"></path></g><g transform="translate(978.0000000000002 181.5) rotate(0 -13.040219126874717 16.855180684570314)"><path d="M-20.05 15.1 C-23.72 17.08, -24.84 24.23, -26.82 32.79 M-21.11 13.64 C-21.92 19.53, -24.92 28.09, -25.77 34.91" stroke="#000000" stroke-width="2" fill="none"></path></g><g transform="translate(978.0000000000002 181.5) rotate(0 -13.040219126874717 16.855180684570314)"><path d="M-7.76 23.68 C-14.72 23.42, -19.05 28.32, -26.82 32.79 M-8.82 22.21 C-13.91 25.18, -21.14 30.79, -25.77 34.91" stroke="#000000" stroke-width="2" fill="none"></path></g></g><g stroke-linecap="round"><g transform="translate(921.0000000000002 270) rotate(0 -9.847559541547525 18.236924830908038)"><path d="M0 -0.42 C-2.94 6.12, -15.63 31.87, -18.49 38.16 M-1.46 -1.69 C-4.52 4.6, -17.02 29.68, -19.69 36.39" stroke="#000000" stroke-width="2" fill="none"></path></g><g transform="translate(921.0000000000002 270) rotate(0 -9.847559541547525 18.236924830908038)"><path d="M-18.8 14.84 C-17.54 21.77, -19.26 25.98, -21.66 35.58 M-17.1 16.26 C-19.21 21.74, -18.78 28.09, -18.77 35.62" stroke="#000000" stroke-width="2" fill="none"></path></g><g transform="translate(921.0000000000002 270) rotate(0 -9.847559541547525 18.236924830908038)"><path d="M-5.84 20.72 C-7.47 26.32, -12.13 29.2, -21.66 35.58 M-4.14 22.14 C-10.25 25.84, -13.79 30.38, -18.77 35.62" stroke="#000000" stroke-width="2" fill="none"></path></g></g><g stroke-linecap="round"><g transform="translate(867.0000000000002 326.1070031354725) rotate(0 -13.077269872762145 32.121054237964245)"><path d="M-0.92 0.33 C-5.26 10.94, -22.03 54.29, -26.34 64.79 M0.79 -0.54 C-3.62 10.25, -22.23 52.28, -26.94 63.08" stroke="#000000" stroke-width="2" fill="none"></path></g><g transform="translate(867.0000000000002 326.1070031354725) rotate(0 -13.077269872762145 32.121054237964245)"><path d="M-24.45 34.24 C-23.92 41.65, -26.94 49.38, -25.13 61.94 M-24.67 33.01 C-24.74 40.81, -26.74 49.94, -26.42 62.39" stroke="#000000" stroke-width="2" fill="none"></path></g><g transform="translate(867.0000000000002 326.1070031354725) rotate(0 -13.077269872762145 32.121054237964245)"><path d="M-5.66 42.5 C-10.38 47.5, -18.55 52.95, -25.13 61.94 M-5.88 41.27 C-10.87 46.98, -17.84 53.93, -26.42 62.39" stroke="#000000" stroke-width="2" fill="none"></path></g></g><g stroke-linecap="round"><g transform="translate(816.2278420563791 432.4639034572988) rotate(0 -5.583884935397464 21.597751340456398)"><path d="M0.23 -1.04 C-1.72 6.5, -8.74 37.04, -10.54 44.23 M-1.11 1.03 C-3.31 8.35, -9.69 35.75, -11.4 42.74" stroke="#000000" stroke-width="2" fill="none"></path></g><g transform="translate(816.2278420563791 432.4639034572988) rotate(0 -5.583884935397464 21.597751340456398)"><path d="M-15.66 21.01 C-11.11 29.64, -13.62 37.35, -9.53 42.35 M-12.94 19.93 C-12.29 27.69, -13.29 34.11, -10.9 42.74" stroke="#000000" stroke-width="2" fill="none"></path></g><g transform="translate(816.2278420563791 432.4639034572988) rotate(0 -5.583884935397464 21.597751340456398)"><path d="M-0.9 24.54 C-2.19 31.79, -10.57 38.1, -9.53 42.35 M1.81 23.45 C-1.9 30.19, -7.27 35.56, -10.9 42.74" stroke="#000000" stroke-width="2" fill="none"></path></g></g><g stroke-linecap="round"><g transform="translate(764.9148597707956 527.3788308449375) rotate(0 -5.07106750243338 35.21075869607239)"><path d="M0.73 0.98 C-1.14 12.3, -8.17 57.18, -10.18 68.39 M-0.35 0.45 C-2.43 11.94, -8.85 58.46, -10.87 69.97" stroke="#000000" stroke-width="2" fill="none"></path></g><g transform="translate(764.9148597707956 527.3788308449375) rotate(0 -5.07106750243338 35.21075869607239)"><path d="M-15.07 41.35 C-14.2 50.79, -12.19 65, -10.7 71.77 M-17.27 39.73 C-15.19 46.78, -13.86 53.81, -11.3 69.74" stroke="#000000" stroke-width="2" fill="none"></path></g><g transform="translate(764.9148597707956 527.3788308449375) rotate(0 -5.07106750243338 35.21075869607239)"><path d="M5.22 44.49 C-1.78 52.83, -7.61 65.83, -10.7 71.77 M3.01 42.86 C0.45 49.18, -2.91 55.49, -11.3 69.74" stroke="#000000" stroke-width="2" fill="none"></path></g></g><g stroke-linecap="round"><g transform="translate(1060.5000000000002 123) rotate(0 31.288300990853486 29.540457896031285)"><path d="M-0.03 0.42 C10.56 9.98, 53.73 48.31, 64.08 58.14 M-1.5 -0.4 C8.97 9.25, 52.7 49.83, 63.69 59.48" stroke="#000000" stroke-width="2" fill="none"></path></g><g transform="translate(1060.5000000000002 123) rotate(0 31.288300990853486 29.540457896031285)"><path d="M36.62 49.94 C45.06 50.5, 56.83 55.17, 63.29 60.9 M35.48 47.81 C41.95 51.82, 50.51 53.42, 64.13 59.43" stroke="#000000" stroke-width="2" fill="none"></path></g><g transform="translate(1060.5000000000002 123) rotate(0 31.288300990853486 29.540457896031285)"><path d="M50.4 34.74 C54.15 40.59, 61.12 50.55, 63.29 60.9 M49.26 32.6 C52.22 40.46, 57.32 45.89, 64.13 59.43" stroke="#000000" stroke-width="2" fill="none"></path></g></g><g stroke-linecap="round"><g transform="translate(1009.5000000000002 177) rotate(0 31.675956278666717 27.97384013269084)"><path d="M-0.39 1.13 C10.19 10.22, 53.37 45.38, 63.75 54.34 M1.6 0.68 C12.07 9.9, 52.76 46.07, 63.19 55.27" stroke="#000000" stroke-width="2" fill="none"></path></g><g transform="translate(1009.5000000000002 177) rotate(0 31.675956278666717 27.97384013269084)"><path d="M37.17 45.5 C42.31 45.98, 52.21 49.63, 63.24 54.2 M34.78 44.53 C43.21 48.37, 49.66 50.14, 62.6 54.45" stroke="#000000" stroke-width="2" fill="none"></path></g><g transform="translate(1009.5000000000002 177) rotate(0 31.675956278666717 27.97384013269084)"><path d="M50.78 30.14 C51.51 35.51, 57.04 44.1, 63.24 54.2 M48.39 29.17 C53.2 37.12, 55.94 43.09, 62.6 54.45" stroke="#000000" stroke-width="2" fill="none"></path></g></g><g stroke-linecap="round"><g transform="translate(952.5000000000002 255) rotate(0 24.16784924827516 27.601063490286606)"><path d="M-0.46 -0.77 C7.49 8.38, 40.89 46.76, 48.8 55.97 M1.5 1.44 C9.26 10.75, 40.29 45.12, 48.27 54.1" stroke="#000000" stroke-width="2" fill="none"></path></g><g transform="translate(952.5000000000002 255) rotate(0 24.16784924827516 27.601063490286606)"><path d="M20.54 41.26 C33.07 43.87, 40.97 52.71, 48.65 52.79 M20.87 39.54 C28.04 42.72, 34.65 46.58, 48.79 53.62" stroke="#000000" stroke-width="2" fill="none"></path></g><g transform="translate(952.5000000000002 255) rotate(0 24.16784924827516 27.601063490286606)"><path d="M35.83 27.57 C42.5 35.47, 44.42 49.67, 48.65 52.79 M36.16 25.85 C39.75 32.26, 42.66 39.43, 48.79 53.62" stroke="#000000" stroke-width="2" fill="none"></path></g></g><g stroke-linecap="round"><g transform="translate(891.0000000000002 339) rotate(0 23.24835603274414 30.00673013367691)"><path d="M-0.68 0.9 C7.1 10.97, 39.41 50.29, 47.18 59.69 M1.16 0.32 C8.8 10.15, 39.31 48.58, 46.59 58.19" stroke="#000000" stroke-width="2" fill="none"></path></g><g transform="translate(891.0000000000002 339) rotate(0 23.24835603274414 30.00673013367691)"><path d="M22.67 43.38 C31.7 46.86, 36.34 54.25, 45.47 58.99 M20.69 41.54 C25.68 44.76, 31.68 49.92, 47.36 58.47" stroke="#000000" stroke-width="2" fill="none"></path></g><g transform="translate(891.0000000000002 339) rotate(0 23.24835603274414 30.00673013367691)"><path d="M38.87 30.78 C42.32 38.44, 41.46 50.11, 45.47 58.99 M36.88 28.93 C38.41 34.9, 40.97 42.73, 47.36 58.47" stroke="#000000" stroke-width="2" fill="none"></path></g></g><g stroke-linecap="round"><g transform="translate(841.5000000000002 414) rotate(0 25.510704283677114 28.242520958986233)"><path d="M0.34 0.01 C8.74 9.46, 41.22 47.86, 49.85 57.52 M-0.94 -1.03 C7.86 7.99, 43.15 46.14, 51.96 55.66" stroke="#000000" stroke-width="2" fill="none"></path></g><g transform="translate(841.5000000000002 414) rotate(0 25.510704283677114 28.242520958986233)"><path d="M25.3 40.04 C33.02 47.23, 40.53 47.49, 51.24 54.04 M25.75 42.08 C31.54 45.92, 36.85 48.52, 51.68 54.82" stroke="#000000" stroke-width="2" fill="none"></path></g><g transform="translate(841.5000000000002 414) rotate(0 25.510704283677114 28.242520958986233)"><path d="M40.35 26.1 C44.34 36.87, 48.01 40.68, 51.24 54.04 M40.81 28.14 C42.97 35.17, 44.73 41.07, 51.68 54.82" stroke="#000000" stroke-width="2" fill="none"></path></g></g><g stroke-linecap="round"><g transform="translate(801.0000000000002 513) rotate(0 15.730835647545746 21.147542681135292)"><path d="M0.07 0.68 C5.26 7.59, 25.4 33.91, 30.59 40.67 M-1.36 0 C4.26 7.19, 27.55 35.75, 32.82 42.3" stroke="#000000" stroke-width="2" fill="none"></path></g><g transform="translate(801.0000000000002 513) rotate(0 15.730835647545746 21.147542681135292)"><path d="M11.97 27.57 C16.53 31.85, 22.97 35.66, 34.24 41.44 M10.45 30.08 C17.13 33.41, 22.48 35.07, 32.34 42.49" stroke="#000000" stroke-width="2" fill="none"></path></g><g transform="translate(801.0000000000002 513) rotate(0 15.730835647545746 21.147542681135292)"><path d="M25.6 16.52 C26.68 23.57, 29.72 30.15, 34.24 41.44 M24.08 19.03 C27.31 25.05, 29.26 29.47, 32.34 42.49" stroke="#000000" stroke-width="2" fill="none"></path></g></g></svg>